<?xml version="1.0" standalone="no"?>
<!DOCTYPE svg PUBLIC "-//W3C//DTD SVG 20010904//EN"
 "http://www.w3.org/TR/2001/REC-SVG-20010904/DTD/svg10.dtd">
<svg version="1.0" xmlns="http://www.w3.org/2000/svg"
 width="1823.000000pt" height="1823.000000pt" viewBox="0 0 1823.000000 1823.000000"
 preserveAspectRatio="xMidYMid meet">
<metadata>
Created by potrace 1.11, written by Peter Selinger 2001-2013
</metadata>
<g transform="translate(0.000000,1823.000000) scale(0.100000,-0.100000)"
fill="#000000" stroke="none">
<path d="M3945 13423 c13 -46 1056 -3851 1059 -3864 0 -4 -1059 -1232 -2354
-2729 -1295 -1497 -2357 -2727 -2358 -2731 -2 -5 20 0 50 10 29 11 2541 911
5582 2001 3042 1089 5530 1982 5531 1983 1 1 340 484 753 1073 414 590 752
1076 752 1080 0 5 -421 252 -935 548 -514 297 -933 541 -932 542 2 2 465 -73
1031 -166 565 -94 1037 -170 1048 -170 18 0 19 5 14 48 -3 26 -13 262 -23 525
-10 291 -21 484 -28 492 -5 7 -608 327 -1339 709 l-1330 696 -3267 0 -3268 0
14 -47z"/>
<path d="M13785 11758 c4 -69 28 -744 38 -1068 l2 -85 -694 -1143 c-381 -629
-691 -1145 -689 -1148 3 -2 691 111 1529 252 2648 445 2754 462 2764 454 6 -4
194 -157 418 -339 225 -183 412 -330 415 -327 5 5 -386 2597 -393 2604 -3 4
-3374 882 -3385 882 -6 0 -8 -31 -5 -82z"/>
</g>
</svg>
